<?xml version="1.0" encoding="UTF-8"?><svg id="Livello_1" xmlns="http://www.w3.org/2000/svg" viewBox="0 0 333.33 351.84"><defs><style>.cls-1{fill:#cc1517;}</style></defs><path class="cls-1" d="M178.82,86.82c-36.53,0-66.14,27.14-66.14,60.62,0,20.8,11.43,39.15,28.83,50.07v37.58h73.67v-37c17.93-10.85,29.77-29.48,29.77-50.65,0-33.48-29.6-60.62-66.13-60.62ZM157.7,221.54c0,2.41-1.95,4.36-4.36,4.36s-4.37-1.95-4.37-4.36v-26.28c0-2.41,1.96-4.36,4.37-4.36s4.36,1.95,4.36,4.36v26.28ZM163.91,155.23l-26.69-2.33c-1.44-.13-2.49-1.39-2.37-2.82l.8-9.05c.12-1.44,1.38-2.5,2.81-2.37l26.69,2.34c1.44.13,2.49,1.39,2.36,2.81l-.79,9.06c-.12,1.43-1.39,2.48-2.82,2.36ZM174.63,221.79c0,2.41-1.95,4.36-4.36,4.36s-4.36-1.95-4.36-4.36v-38.43c0-2.41,1.95-4.36,4.36-4.36s4.36,1.95,4.36,4.36v38.43ZM191.57,221.79c0,2.41-1.95,4.36-4.36,4.36s-4.36-1.95-4.36-4.36v-38.43c0-2.41,1.95-4.36,4.36-4.36s4.36,1.95,4.36,4.36v38.43ZM208.51,221.54c0,2.41-1.95,4.36-4.36,4.36s-4.37-1.95-4.37-4.36v-26.28c0-2.41,1.95-4.36,4.37-4.36s4.36,1.95,4.36,4.36v26.28ZM219.39,152.89l-26.68,2.33c-1.43.12-2.69-.93-2.81-2.36l-.8-9.06c-.13-1.43.93-2.68,2.37-2.81l26.69-2.34c1.43-.12,2.69.94,2.82,2.37l.79,9.05c.13,1.43-.93,2.69-2.37,2.82Z"/><path class="cls-1" d="M178.81,43.3c-64.98,0-117.65,52.68-117.65,117.66s52.67,117.66,117.65,117.66,117.66-52.68,117.66-117.66-52.68-117.66-117.66-117.66ZM230.81,206.33v28.77c0,8.63-7,15.61-15.63,15.61h-73.67c-8.62,0-15.62-6.99-15.62-15.62v-29.51c-18.2-14.4-28.84-35.57-28.84-58.14,0-42.04,36.68-76.24,81.77-76.24s81.74,34.2,81.74,76.24c0,23.04-10.96,44.47-29.75,58.88Z"/></svg>